<svg id="Слой_2" data-name="Слой 2" xmlns="http://www.w3.org/2000/svg" viewBox="0 0 101 101"><title>Artboard 2 copy 6</title><path   style="fill: #9299A5" d="M86.91,51.5a1.5,1.5,0,0,0-1.5-1.5H81.1a13.9,13.9,0,0,0,1.15-5.54A14.31,14.31,0,0,0,70.86,30.58C74.29,14.41,59.21,8.17,59.06,8.11A1.5,1.5,0,0,0,57,9.5V10c0,1.89.07,4.93-2.59,7.12a8,8,0,0,0-4.47-2.07c-.76-10.81-10-13-10.12-13A1.5,1.5,0,1,0,39.17,5c.07,0,7.14,1.71,7.76,10.31a8,8,0,0,0-5.32,4.63c-9.32.65-11.12,7.49-11.44,10.67A14.39,14.39,0,0,0,18.75,44.46,13.89,13.89,0,0,0,19.9,50H15.59a1.5,1.5,0,0,0-1.5,1.5C14.09,66.82,29.61,79.35,49,80V95H35a1.5,1.5,0,0,0,0,3H66a1.5,1.5,0,0,0,0-3H52V80C71.39,79.35,86.91,66.82,86.91,51.5ZM49,18a5,5,0,1,1-5,5A5,5,0,0,1,49,18ZM21.75,44.46A11.42,11.42,0,0,1,31.82,33.34a1.5,1.5,0,0,0,1.3-1.49V31.8c0-2,.66-7.88,7.88-8.82v0a8,8,0,1,0,15.2-3.46A10.24,10.24,0,0,0,60,11.94c3.66,2.2,10.67,8,7.65,19.27h0a1.5,1.5,0,0,0,1.23,2.08,11.38,11.38,0,0,1,10.4,11.18A10.91,10.91,0,0,1,77.72,50H23.28A10.91,10.91,0,0,1,21.75,44.46ZM17.14,53H83.86c-1,13.37-15.59,24-33.36,24S18.17,66.37,17.14,53Z"/><path style="fill: #9299A5" d="M59.4,32.3a1.5,1.5,0,0,0-2.1.3c-8,10.73-19.53,3.92-20,3.62a1.5,1.5,0,0,0-1.57,2.56,22.22,22.22,0,0,0,10.41,2.81c4.36,0,9.38-1.59,13.57-7.19A1.5,1.5,0,0,0,59.4,32.3Z"/></svg>